<mxfile host="app.diagrams.net" modified="2023-09-17T19:22:45.246Z" agent="Mozilla/5.0 (Macintosh; Intel Mac OS X 10_15_7) AppleWebKit/605.1.15 (KHTML, like Gecko) Version/16.5.2 Safari/605.1.15" etag="KTwQWPoHWpvn_suTETY0" version="21.6.9" type="device">
  <diagram name="Page-1" id="c37626ed-c26b-45fb-9056-f9ebc6bb27b6">
    <mxGraphModel dx="1530" dy="722" grid="1" gridSize="10" guides="1" tooltips="1" connect="1" arrows="1" fold="1" page="1" pageScale="1" pageWidth="1100" pageHeight="850" background="none" math="0" shadow="0">
      <root>
        <mxCell id="0" />
        <mxCell id="1" parent="0" />
        <mxCell id="sUftshu4QUAMOtGEZDUO-21" value="" style="rounded=0;whiteSpace=wrap;html=1;dashed=1;" vertex="1" parent="1">
          <mxGeometry x="500" y="220" width="240" height="180" as="geometry" />
        </mxCell>
        <mxCell id="sUftshu4QUAMOtGEZDUO-2" value="" style="shape=mxgraph.cisco.servers.server_with_router;sketch=0;html=1;pointerEvents=1;dashed=0;fillColor=#036897;strokeColor=#ffffff;strokeWidth=2;verticalLabelPosition=bottom;verticalAlign=top;align=center;outlineConnect=0;" vertex="1" parent="1">
          <mxGeometry x="660" y="274" width="38" height="64" as="geometry" />
        </mxCell>
        <mxCell id="sUftshu4QUAMOtGEZDUO-3" value="" style="shape=mxgraph.cisco.computers_and_peripherals.workstation;sketch=0;html=1;pointerEvents=1;dashed=0;fillColor=#036897;strokeColor=#ffffff;strokeWidth=2;verticalLabelPosition=bottom;verticalAlign=top;align=center;outlineConnect=0;" vertex="1" parent="1">
          <mxGeometry x="130" y="220" width="83" height="62" as="geometry" />
        </mxCell>
        <mxCell id="sUftshu4QUAMOtGEZDUO-4" value="" style="shape=mxgraph.cisco.computers_and_peripherals.workstation;sketch=0;html=1;pointerEvents=1;dashed=0;fillColor=#036897;strokeColor=#ffffff;strokeWidth=2;verticalLabelPosition=bottom;verticalAlign=top;align=center;outlineConnect=0;" vertex="1" parent="1">
          <mxGeometry x="130" y="340" width="83" height="62" as="geometry" />
        </mxCell>
        <mxCell id="sUftshu4QUAMOtGEZDUO-5" value="" style="shape=mxgraph.cisco.switches.workgroup_switch;sketch=0;html=1;pointerEvents=1;dashed=0;fillColor=#036897;strokeColor=#ffffff;strokeWidth=2;verticalLabelPosition=bottom;verticalAlign=top;align=center;outlineConnect=0;" vertex="1" parent="1">
          <mxGeometry x="530" y="283" width="80" height="46" as="geometry" />
        </mxCell>
        <mxCell id="sUftshu4QUAMOtGEZDUO-7" value="" style="shape=mxgraph.cisco.storage.cloud;sketch=0;html=1;pointerEvents=1;dashed=0;fillColor=#CCCCCC;strokeColor=#ffffff;strokeWidth=2;verticalLabelPosition=bottom;verticalAlign=top;align=center;outlineConnect=0;" vertex="1" parent="1">
          <mxGeometry x="300" y="248" width="186" height="106" as="geometry" />
        </mxCell>
        <mxCell id="sUftshu4QUAMOtGEZDUO-8" value="&lt;font style=&quot;font-size: 18px;&quot;&gt;Internet&lt;/font&gt;" style="text;html=1;strokeColor=none;fillColor=none;align=center;verticalAlign=middle;whiteSpace=wrap;rounded=0;" vertex="1" parent="1">
          <mxGeometry x="358" y="283" width="82" height="36" as="geometry" />
        </mxCell>
        <mxCell id="sUftshu4QUAMOtGEZDUO-9" value="&lt;font style=&quot;font-size: 14px;&quot;&gt;PlanetLab Node 1&lt;/font&gt;" style="text;html=1;strokeColor=none;fillColor=none;align=center;verticalAlign=middle;whiteSpace=wrap;rounded=0;" vertex="1" parent="1">
          <mxGeometry x="111.5" y="275" width="120" height="36" as="geometry" />
        </mxCell>
        <mxCell id="sUftshu4QUAMOtGEZDUO-10" value="&lt;font style=&quot;font-size: 14px;&quot;&gt;PlanetLab Node 4&lt;/font&gt;" style="text;html=1;strokeColor=none;fillColor=none;align=center;verticalAlign=middle;whiteSpace=wrap;rounded=0;" vertex="1" parent="1">
          <mxGeometry x="111.5" y="400" width="120" height="36" as="geometry" />
        </mxCell>
        <mxCell id="sUftshu4QUAMOtGEZDUO-11" value="&lt;font style=&quot;font-size: 24px;&quot;&gt;...&lt;/font&gt;" style="text;html=1;strokeColor=none;fillColor=none;align=center;verticalAlign=middle;whiteSpace=wrap;rounded=0;" vertex="1" parent="1">
          <mxGeometry x="111.5" y="290" width="120" height="36" as="geometry" />
        </mxCell>
        <mxCell id="sUftshu4QUAMOtGEZDUO-12" value="" style="shape=curlyBracket;whiteSpace=wrap;html=1;rounded=1;flipH=1;labelPosition=right;verticalLabelPosition=middle;align=left;verticalAlign=middle;size=0.4166666666666667;" vertex="1" parent="1">
          <mxGeometry x="190" y="240" width="120" height="130" as="geometry" />
        </mxCell>
        <mxCell id="sUftshu4QUAMOtGEZDUO-16" value="" style="line;strokeWidth=2;html=1;" vertex="1" parent="1">
          <mxGeometry x="480" y="300" width="50" height="10" as="geometry" />
        </mxCell>
        <mxCell id="sUftshu4QUAMOtGEZDUO-17" value="" style="line;strokeWidth=2;html=1;" vertex="1" parent="1">
          <mxGeometry x="610" y="300" width="50" height="10" as="geometry" />
        </mxCell>
        <mxCell id="sUftshu4QUAMOtGEZDUO-18" value="&lt;font style=&quot;font-size: 14px;&quot;&gt;Middlebox&lt;/font&gt;" style="text;html=1;strokeColor=none;fillColor=none;align=center;verticalAlign=middle;whiteSpace=wrap;rounded=0;" vertex="1" parent="1">
          <mxGeometry x="520" y="326" width="80" height="36" as="geometry" />
        </mxCell>
        <mxCell id="sUftshu4QUAMOtGEZDUO-19" value="&lt;font style=&quot;font-size: 14px;&quot;&gt;Test Server / Target IP&lt;/font&gt;" style="text;html=1;strokeColor=none;fillColor=none;align=center;verticalAlign=middle;whiteSpace=wrap;rounded=0;" vertex="1" parent="1">
          <mxGeometry x="639" y="340" width="80" height="36" as="geometry" />
        </mxCell>
        <mxCell id="sUftshu4QUAMOtGEZDUO-20" value="&lt;font style=&quot;font-size: 14px;&quot;&gt;Research controlled&lt;/font&gt;" style="text;html=1;strokeColor=none;fillColor=none;align=center;verticalAlign=middle;whiteSpace=wrap;rounded=0;" vertex="1" parent="1">
          <mxGeometry x="530" y="184" width="170" height="36" as="geometry" />
        </mxCell>
      </root>
    </mxGraphModel>
  </diagram>
</mxfile>
